<svg width="277" height="47" viewBox="0 0 277 47" fill="none" xmlns="http://www.w3.org/2000/svg">
<path d="M77.6381 38.4C75.7981 38.4 74.2248 38.1733 72.9181 37.72C71.6115 37.2667 70.5181 36.68 69.6381 35.96C68.7848 35.24 68.1048 34.48 67.5981 33.68C67.0915 32.8533 66.7048 32.08 66.4381 31.36C66.1981 30.64 66.0381 30.0533 65.9581 29.6C65.8781 29.1467 65.8381 28.92 65.8381 28.92H71.3581C71.3581 28.92 71.3848 29.08 71.4381 29.4C71.5181 29.72 71.6781 30.1333 71.9181 30.64C72.1581 31.12 72.5048 31.6 72.9581 32.08C73.4381 32.56 74.0648 32.9733 74.8381 33.32C75.6381 33.64 76.6248 33.8 77.7981 33.8C79.6115 33.8 80.9848 33.4 81.9181 32.6C82.8781 31.7733 83.3581 30.76 83.3581 29.56C83.3581 28.5467 82.9981 27.7467 82.2781 27.16C81.5581 26.5467 80.4915 26.0933 79.0781 25.8L75.1581 24.96C73.6381 24.64 72.2115 24.16 70.8781 23.52C69.5715 22.88 68.5181 22.0133 67.7181 20.92C66.9181 19.8267 66.5181 18.4267 66.5181 16.72C66.5181 14.9333 66.9581 13.3867 67.8381 12.08C68.7448 10.7733 69.9848 9.77333 71.5581 9.08C73.1315 8.36 74.9715 8 77.0781 8C79.0781 8 80.7315 8.29333 82.0381 8.88C83.3448 9.46667 84.3848 10.1867 85.1581 11.04C85.9581 11.8933 86.5448 12.7467 86.9181 13.6C87.2915 14.4533 87.5315 15.1733 87.6381 15.76C87.7715 16.3467 87.8381 16.64 87.8381 16.64H82.5181C82.5181 16.64 82.4648 16.44 82.3581 16.04C82.2515 15.6133 82.0115 15.1333 81.6381 14.6C81.2648 14.0667 80.7048 13.6 79.9581 13.2C79.2115 12.7733 78.2115 12.56 76.9581 12.56C75.1715 12.56 73.8648 12.96 73.0381 13.76C72.2381 14.56 71.8381 15.4267 71.8381 16.36C71.8381 17.32 72.2115 18.0667 72.9581 18.6C73.7048 19.1333 74.7048 19.5467 75.9581 19.84L80.1581 20.72C81.7315 21.0667 83.1715 21.5867 84.4781 22.28C85.7848 22.9733 86.8248 23.8933 87.5981 25.04C88.3715 26.16 88.7581 27.56 88.7581 29.24C88.7581 30.9467 88.3315 32.4933 87.4781 33.88C86.6248 35.2667 85.3715 36.3733 83.7181 37.2C82.0648 38 80.0381 38.4 77.6381 38.4Z" fill="#FF9500"/>
<path d="M93.2081 38V7.6H98.5281V25.2L106.008 16.8H112.288L103.488 26.48L112.568 38H106.208L98.5281 28.24V38H93.2081Z" fill="#FF9500"/>
<path d="M119.368 13.52C118.434 13.52 117.661 13.2133 117.048 12.6C116.461 11.9867 116.168 11.2533 116.168 10.4C116.168 9.54666 116.461 8.81333 117.048 8.2C117.661 7.58667 118.434 7.28 119.368 7.28C120.301 7.28 121.074 7.58667 121.688 8.2C122.301 8.81333 122.607 9.54666 122.607 10.4C122.607 11.2533 122.301 11.9867 121.688 12.6C121.074 13.2133 120.301 13.52 119.368 13.52ZM116.728 38V16.8H122.048V38H116.728Z" fill="#FF9500"/>
<path d="M127.974 38L128.014 7.6H133.294V38H127.974Z" fill="#FF9500"/>
<path d="M139.068 38L139.107 7.6H144.387V38H139.068Z" fill="#FF9500"/>
<path d="M162.201 38.4C160.841 38.4 159.721 38.1867 158.841 37.76C157.961 37.3067 157.268 36.8133 156.761 36.28C156.281 35.7467 155.948 35.3333 155.761 35.04H155.481V38H150.161V7.6H155.481V19.76H155.761C155.948 19.44 156.281 19.0133 156.761 18.48C157.268 17.9467 157.961 17.4667 158.841 17.04C159.721 16.6133 160.841 16.4 162.201 16.4C163.801 16.4 165.188 16.72 166.361 17.36C167.535 17.9733 168.508 18.8133 169.281 19.88C170.055 20.92 170.628 22.0933 171.001 23.4C171.401 24.7067 171.601 26.04 171.601 27.4C171.601 28.76 171.401 30.0933 171.001 31.4C170.628 32.7067 170.055 33.8933 169.281 34.96C168.508 36 167.535 36.84 166.361 37.48C165.188 38.0933 163.801 38.4 162.201 38.4ZM160.801 34.04C162.028 34.04 163.041 33.72 163.841 33.08C164.641 32.4133 165.241 31.5733 165.641 30.56C166.041 29.5467 166.241 28.4933 166.241 27.4C166.241 26.3067 166.041 25.2533 165.641 24.24C165.241 23.2267 164.641 22.4 163.841 21.76C163.041 21.0933 162.028 20.76 160.801 20.76C159.601 20.76 158.601 21.0933 157.801 21.76C157.001 22.4 156.401 23.2267 156.001 24.24C155.601 25.2533 155.401 26.3067 155.401 27.4C155.401 28.4933 155.601 29.5467 156.001 30.56C156.401 31.5733 157.001 32.4133 157.801 33.08C158.601 33.72 159.601 34.04 160.801 34.04Z" fill="#FF9500"/>
<path d="M176.246 38V16.8H181.526V19.72H181.726C182.099 18.8933 182.712 18.1333 183.566 17.44C184.419 16.7467 185.699 16.4 187.406 16.4C187.939 16.4 188.379 16.44 188.726 16.52C189.072 16.5733 189.246 16.6 189.246 16.6V21.76C189.246 21.76 189.046 21.7333 188.646 21.68C188.272 21.6267 187.806 21.6 187.246 21.6C185.379 21.6 183.966 22.12 183.006 23.16C182.046 24.2 181.566 25.88 181.566 28.2V38H176.246Z" fill="#FF9500"/>
<path d="M196.711 13.52C195.778 13.52 195.005 13.2133 194.391 12.6C193.805 11.9867 193.511 11.2533 193.511 10.4C193.511 9.54666 193.805 8.81333 194.391 8.2C195.005 7.58667 195.778 7.28 196.711 7.28C197.645 7.28 198.418 7.58667 199.031 8.2C199.645 8.81333 199.951 9.54666 199.951 10.4C199.951 11.2533 199.645 11.9867 199.031 12.6C198.418 13.2133 197.645 13.52 196.711 13.52ZM194.071 38V16.8H199.391V38H194.071Z" fill="#FF9500"/>
<path d="M213.997 38.4C212.424 38.4 211.051 38.0933 209.878 37.48C208.704 36.84 207.717 36 206.917 34.96C206.144 33.8933 205.558 32.7067 205.158 31.4C204.784 30.0933 204.598 28.76 204.598 27.4C204.598 26.04 204.784 24.7067 205.158 23.4C205.558 22.0933 206.144 20.92 206.917 19.88C207.717 18.8133 208.704 17.9733 209.878 17.36C211.051 16.72 212.424 16.4 213.997 16.4C215.357 16.4 216.477 16.6267 217.357 17.08C218.237 17.5067 218.931 17.9867 219.438 18.52C219.944 19.0267 220.291 19.44 220.478 19.76H220.717V7.6H226.038V38H220.717V35.04H220.478C220.291 35.36 219.944 35.7867 219.438 36.32C218.931 36.8533 218.237 37.3333 217.357 37.76C216.477 38.1867 215.357 38.4 213.997 38.4ZM215.398 34.04C216.598 34.04 217.598 33.72 218.398 33.08C219.198 32.4133 219.797 31.5733 220.197 30.56C220.597 29.5467 220.798 28.4933 220.798 27.4C220.798 26.3067 220.597 25.2533 220.197 24.24C219.797 23.2267 219.198 22.4 218.398 21.76C217.598 21.0933 216.598 20.76 215.398 20.76C214.198 20.76 213.184 21.0933 212.357 21.76C211.557 22.4 210.957 23.2267 210.557 24.24C210.157 25.2533 209.958 26.3067 209.958 27.4C209.958 28.4933 210.157 29.5467 210.557 30.56C210.957 31.5733 211.557 32.4133 212.357 33.08C213.184 33.72 214.198 34.04 215.398 34.04Z" fill="#FF9500"/>
<path d="M241.886 46.48C239.992 46.48 238.419 46.2267 237.166 45.72C235.939 45.24 234.966 44.64 234.246 43.92C233.526 43.2267 232.992 42.52 232.646 41.8C232.299 41.08 232.072 40.48 231.966 40C231.859 39.52 231.806 39.28 231.806 39.28H237.006C237.006 39.28 237.059 39.4267 237.166 39.72C237.272 40.0133 237.486 40.3467 237.806 40.72C238.152 41.12 238.646 41.4667 239.286 41.76C239.926 42.0533 240.779 42.2 241.846 42.2C243.712 42.2 245.059 41.6667 245.886 40.6C246.712 39.5333 247.126 38.24 247.126 36.72V34.36H246.886C246.592 34.8133 246.166 35.3067 245.606 35.84C245.072 36.3733 244.366 36.8267 243.486 37.2C242.632 37.5733 241.592 37.76 240.366 37.76C238.792 37.76 237.419 37.4533 236.246 36.84C235.072 36.2267 234.086 35.4133 233.286 34.4C232.486 33.3867 231.886 32.2533 231.486 31C231.112 29.72 230.926 28.4133 230.926 27.08C230.926 25.7467 231.112 24.4533 231.486 23.2C231.886 21.92 232.486 20.7733 233.286 19.76C234.086 18.72 235.072 17.9067 236.246 17.32C237.419 16.7067 238.792 16.4 240.366 16.4C241.592 16.4 242.632 16.5867 243.486 16.96C244.366 17.3333 245.072 17.7867 245.606 18.32C246.166 18.8267 246.592 19.3067 246.886 19.76H247.126V16.8H252.446V36.68C252.446 38.52 252.059 40.1733 251.286 41.64C250.512 43.1333 249.339 44.3067 247.766 45.16C246.219 46.04 244.259 46.48 241.886 46.48ZM241.766 33.48C242.966 33.48 243.966 33.1733 244.766 32.56C245.566 31.92 246.166 31.12 246.566 30.16C246.966 29.1733 247.166 28.1467 247.166 27.08C247.166 25.9867 246.966 24.96 246.566 24C246.166 23.0133 245.566 22.2133 244.766 21.6C243.966 20.9867 242.966 20.68 241.766 20.68C240.539 20.68 239.512 20.9867 238.686 21.6C237.886 22.2133 237.286 23.0133 236.886 24C236.486 24.96 236.286 25.9867 236.286 27.08C236.286 28.1467 236.486 29.1733 236.886 30.16C237.286 31.12 237.886 31.92 238.686 32.56C239.512 33.1733 240.539 33.48 241.766 33.48Z" fill="#FF9500"/>
<path d="M267.189 38.4C265.375 38.4 263.802 38.0933 262.469 37.48C261.162 36.84 260.069 36 259.189 34.96C258.335 33.8933 257.695 32.7067 257.269 31.4C256.842 30.0933 256.629 28.76 256.629 27.4C256.629 26.04 256.829 24.72 257.229 23.44C257.655 22.1333 258.282 20.9467 259.109 19.88C259.962 18.8133 261.042 17.9733 262.349 17.36C263.655 16.72 265.202 16.4 266.989 16.4C268.909 16.4 270.602 16.8267 272.069 17.68C273.535 18.5333 274.682 19.7867 275.509 21.44C276.335 23.0667 276.749 25.0933 276.749 27.52V28.88H261.989C262.069 30.32 262.562 31.5733 263.469 32.64C264.375 33.68 265.615 34.2 267.189 34.2C268.095 34.2 268.842 34.0533 269.429 33.76C270.015 33.4667 270.469 33.1333 270.789 32.76C271.109 32.36 271.335 32.0267 271.469 31.76C271.602 31.4667 271.669 31.32 271.669 31.32H276.589C276.589 31.32 276.522 31.56 276.389 32.04C276.255 32.4933 276.002 33.08 275.629 33.8C275.282 34.4933 274.762 35.2 274.069 35.92C273.375 36.6133 272.469 37.2 271.349 37.68C270.229 38.16 268.842 38.4 267.189 38.4ZM261.989 25.4H271.629C271.549 23.7467 271.055 22.52 270.149 21.72C269.242 20.92 268.175 20.52 266.949 20.52C265.589 20.52 264.455 20.96 263.549 21.84C262.642 22.6933 262.122 23.88 261.989 25.4Z" fill="#FF9500"/>
<path d="M36 0.5H8C3.58172 0.5 0 4.08172 0 8.5V36.5C0 40.9183 3.58172 44.5 8 44.5H36C40.4183 44.5 44 40.9183 44 36.5V8.5C44 4.08172 40.4183 0.5 36 0.5Z" fill="#FF9500"/>
<path d="M9.09766 36.0802L17.9248 27.2531H26.752V18.4259L35.5791 27.2531L26.752 36.0802H9.09766Z" fill="white"/>
<path d="M9.09766 18.4259L17.9248 27.2531V18.4259H26.752L35.5791 9.59877H17.9248L9.09766 18.4259Z" fill="white"/>
</svg>
